<svg width="136" height="23" viewBox="0 0 136 23" fill="none" xmlns="http://www.w3.org/2000/svg">
<path d="M14.8722 18.8271C15.1223 19.5744 15.2783 20.1359 15.2783 20.4779C15.2783 20.789 14.8413 20.9762 14.1865 21.0381L13.2815 21.1324C13.0637 21.2872 13.0933 21.7854 13.3447 21.9093C14.2497 21.8783 15.4343 21.8164 16.9322 21.8164C18.336 21.8164 19.4292 21.8474 20.7079 21.9107C20.8639 21.7854 20.9271 21.2872 20.7079 21.131L19.8662 21.0381C18.5242 20.8819 18.1182 20.416 17.2132 17.7391L12.9373 5.22166C12.4707 3.85223 11.9705 2.42086 11.5658 1.05008C11.5026 0.831945 11.2821 0.770004 11.0979 0.770004C10.7536 1.17397 10.2238 1.73547 9.47489 1.95361C9.56901 2.45183 9.38077 3.04296 8.94376 4.16328L5.76103 12.5697C4.45136 16.0573 3.57735 18.0798 3.0153 19.5125C2.5783 20.6328 1.89253 20.9762 1.14358 21.0381L0.113592 21.1324C-0.0746558 21.2872 -0.0114583 21.7854 0.175445 21.9093C1.01853 21.8783 2.14129 21.8164 3.17128 21.8164C4.63826 21.8474 5.60505 21.8474 6.41721 21.9107C6.69823 21.7854 6.69823 21.2872 6.47906 21.131L5.44908 21.0381C4.70012 20.9762 4.54414 20.789 4.54414 20.416C4.54414 20.0726 4.76332 19.2324 5.2299 17.8306L6.32308 14.5626C6.54226 13.9082 6.72916 13.8153 7.50905 13.8153H12.2206C13.1565 13.8153 13.2829 13.9095 13.5007 14.5936L14.8722 18.8271ZM9.28933 6.40527C9.63221 5.47077 9.94417 4.72344 10.0383 4.56859H10.1001C10.2884 4.94158 10.5681 5.78317 10.8182 6.52915L12.503 11.6056C12.784 12.4458 12.7208 12.5697 11.8172 12.5697H7.97563C7.10162 12.5697 7.0707 12.5387 7.3208 11.8224L9.28664 6.40527H9.28933ZM32.0418 3.2611C32.0418 2.26466 32.0727 2.13943 33.7266 2.13943C36.9725 2.13943 38.7501 4.10134 38.7501 7.12162C38.7501 9.82951 37.5332 11.7295 34.165 12.3516C33.9767 12.4135 33.9767 12.8808 34.1945 12.975C35.4746 12.975 37.1285 12.6936 38.5014 12.0405C39.8433 11.3861 41.6209 9.95339 41.6209 7.09065C41.6209 4.94158 40.56 3.32304 39.1253 2.41951C37.6596 1.51733 35.7234 1.17531 33.1336 1.17531C30.5439 1.17531 28.6089 1.20628 26.9551 1.42442C26.7063 1.5483 26.6754 2.01555 26.8932 2.20272L28.016 2.3266C29.4211 2.4828 29.483 3.01199 29.483 5.65794V17.1466C29.483 20.416 29.4211 20.789 27.6112 21.0381L26.9551 21.1324C26.7682 21.3182 26.8313 21.8164 27.0183 21.9093C28.2862 21.848 29.5555 21.817 30.8249 21.8164C32.0727 21.8164 33.1027 21.8474 34.8816 21.9107C35.0685 21.8164 35.1317 21.2872 34.9435 21.131L34.1017 21.0381C32.1036 20.82 32.0418 20.416 32.0418 17.1466V3.2611ZM56.6122 23C62.6348 23 67.4405 18.4218 67.4405 12.1334C67.4405 6.65303 63.8207 1.45539 56.6122 1.45539C50.1848 1.45539 45.5042 6.2181 45.5042 12.4458C45.5042 18.0488 49.686 23 56.6122 23ZM57.0182 22.0345C50.8706 22.0345 48.6237 16.0559 48.6237 11.4494C48.6237 4.63053 52.8364 2.41951 56.0824 2.41951C62.0418 2.41951 64.3196 7.96186 64.3196 13.0989C64.3196 19.2324 60.7617 22.0345 57.0182 22.0345ZM75.484 17.1466C75.484 20.416 75.4222 20.8509 73.6123 21.0381L72.6764 21.1324C72.4882 21.3182 72.5514 21.8164 72.7383 21.9093C74.4863 21.8474 75.484 21.8164 76.795 21.8164H79.6658C82.8795 21.8164 85.8444 21.8474 87.4351 21.9107C87.8721 21.0691 88.7461 17.8939 88.7461 17.5506C88.7461 17.3338 88.1544 17.2085 87.9662 17.3647C87.3423 18.9523 86.5301 20.0726 85.9062 20.447C85.4074 20.727 84.7525 20.8509 82.1009 20.8509C79.6349 20.8509 79.0419 20.4779 78.699 20.1359C78.137 19.5434 78.0428 18.7342 78.0428 16.7723V5.93802C78.0428 2.66862 78.106 2.1704 79.9468 2.01555L80.6958 1.95361C80.8827 1.82838 80.8208 1.26688 80.6326 1.17531C79.0728 1.23725 78.0119 1.26822 76.795 1.26822C75.5472 1.26822 74.4863 1.23725 72.7383 1.17397C72.55 1.26822 72.4895 1.82838 72.6764 1.95361L73.4563 2.01555C75.4222 2.1704 75.484 2.66862 75.484 5.93802V17.1466ZM96.9335 17.1466C96.9335 20.416 96.8703 20.8509 95.0605 21.0381L94.1246 21.1324C93.9363 21.3182 93.9995 21.8164 94.1864 21.9093C95.9345 21.8474 96.9335 21.8164 98.2432 21.8164H101.114C104.328 21.8164 107.293 21.8474 108.885 21.9107C109.322 21.0691 110.194 17.8939 110.194 17.5506C110.194 17.3338 109.603 17.2085 109.414 17.3647C108.79 18.9523 107.98 20.0726 107.356 20.447C106.856 20.727 106.199 20.8509 103.548 20.8509C101.083 20.8509 100.49 20.4779 100.146 20.1359C99.5851 19.5434 99.4923 18.7342 99.4923 16.7723V5.93802C99.4923 2.66862 99.5542 2.1704 101.395 2.01555L102.144 1.95361C102.332 1.82838 102.269 1.26688 102.082 1.17531C100.522 1.23725 99.4601 1.26822 98.2432 1.26822C96.9954 1.26822 95.9345 1.23725 94.1864 1.17397C93.9995 1.26822 93.9377 1.82838 94.1246 1.95361L94.9045 2.01555C96.8703 2.1704 96.9335 2.66862 96.9335 5.93802V17.1466ZM124.513 23C130.536 23 135.341 18.4218 135.341 12.1334C135.341 6.65303 131.722 1.45539 124.513 1.45539C118.086 1.45539 113.405 6.2181 113.405 12.4458C113.405 18.0488 117.587 23 124.513 23ZM124.919 22.0345C118.772 22.0345 116.525 16.0559 116.525 11.4494C116.525 4.63053 120.737 2.41951 123.983 2.41951C129.943 2.41951 132.221 7.96186 132.221 13.0989C132.221 19.2324 128.664 22.0345 124.919 22.0345Z" fill="#D9D2CC"/>
</svg>
